<svg width="16" height="16" viewBox="0 0 16 16" fill="none" xmlns="http://www.w3.org/2000/svg">
  <path d="M9.6074 4.0166C9.825 4.0166 10.0175 4.0995 10.1836 4.2656C10.3498 4.4317 10.4326 4.6241 10.4326 4.8418C10.4326 5.0593 10.3496 5.251 10.1836 5.417L7.6006 8L10.1836 10.583C10.3496 10.749 10.4326 10.9407 10.4326 11.1582C10.4326 11.3759 10.3498 11.5683 10.1836 11.7344C10.0175 11.9005 9.825 11.9834 9.6074 11.9834C9.3899 11.9833 9.1962 11.8983 9.0264 11.7285L5.875 8.57715C5.8007 8.49827 5.7418 8.40794 5.6982 8.30664C5.6549 8.20534 5.6329 8.10201 5.6328 7.99707C5.6328 7.89203 5.6548 7.78801 5.6982 7.68652C5.7418 7.58528 5.8007 7.49724 5.875 7.42285L9.0264 4.27148C9.1962 4.10173 9.3899 4.01673 9.6074 4.0166Z" fill="currentColor"/>
</svg>
