<svg width="447" height="60" viewBox="0 0 447 60" fill="none" xmlns="http://www.w3.org/2000/svg">
<rect width="447" height="60" fill="#232323"/>
<g id="Frame 2087328648">
<rect width="1389" height="2560" transform="translate(-834 -783)" fill="#1E1E1E"/>
<g id="1">
<rect x="-51.5" y="-317.5" width="550" height="934" rx="4.5" fill="#191E28"/>
<rect x="-51.5" y="-317.5" width="550" height="934" rx="4.5" stroke="#9747FF" stroke-dasharray="10 5"/>
<g id="State=Default, Level=1, Open=On">
<g id="Frame 48096340">
<g id="My Bets Table">
<rect y="-78" width="447" height="138" rx="8" fill="#1D232F"/>
<rect x="0.25" y="-77.75" width="446.5" height="137.5" rx="7.75" stroke="white" stroke-opacity="0.05" stroke-width="0.5"/>
<g id="UI Elements / Header / Mobile / Top">
<rect width="447" height="60" fill="url(#paint0_linear_0_1)"/>
<g id="platform/System buttons">
<path d="M179 42C179 36.4772 183.477 32 189 32H258C263.523 32 268 36.4772 268 42C268 47.5228 263.523 52 258 52H189C183.477 52 179 47.5228 179 42Z" fill="white"/>
<g id="Frame 2087328480">
<path id="Text" d="M191.854 46L189.294 38.9H190.864L192.754 44.29L194.644 38.9H196.214L193.644 46H191.854ZM196.876 46V38.9H198.396V46H196.876ZM199.737 46V38.9H204.677V40.18H201.257V41.81H204.557V43.07H201.257V44.72H204.757V46H199.737ZM207.586 46L205.666 38.9H207.256L208.476 43.9L209.706 38.9H211.036L212.276 43.9L213.486 38.9H215.076L213.166 46H211.526L210.366 41.46L209.206 46H207.586ZM218.458 46V38.9H221.568C222.088 38.9 222.538 38.9867 222.918 39.16C223.304 39.3333 223.601 39.58 223.808 39.9C224.014 40.2133 224.118 40.5867 224.118 41.02C224.118 41.3467 224.048 41.6367 223.908 41.89C223.774 42.1433 223.588 42.35 223.348 42.51C223.114 42.67 222.844 42.77 222.538 42.81L222.508 42.72C222.981 42.72 223.341 42.8233 223.588 43.03C223.834 43.23 223.974 43.54 224.008 43.96L224.188 46H222.638L222.508 44.2C222.488 43.9267 222.401 43.7267 222.248 43.6C222.101 43.4667 221.848 43.4 221.488 43.4H219.978V46H218.458ZM219.978 42.13H221.398C221.764 42.13 222.048 42.0467 222.248 41.88C222.454 41.7067 222.558 41.4633 222.558 41.15C222.558 40.83 222.454 40.59 222.248 40.43C222.041 40.2633 221.741 40.18 221.348 40.18H219.978V42.13ZM225.43 46V38.9H230.37V40.18H226.95V41.81H230.25V43.07H226.95V44.72H230.45V46H225.43ZM234.661 46.16C234.014 46.16 233.438 46.0133 232.931 45.72C232.431 45.4267 232.038 45.0033 231.751 44.45C231.471 43.8967 231.331 43.2333 231.331 42.46C231.331 41.7067 231.468 41.0533 231.741 40.5C232.014 39.94 232.404 39.5067 232.911 39.2C233.418 38.8933 234.011 38.74 234.691 38.74C235.618 38.74 236.338 38.97 236.851 39.43C237.371 39.8833 237.704 40.5333 237.851 41.38L236.271 41.44C236.191 40.9933 236.018 40.6467 235.751 40.4C235.484 40.1467 235.131 40.02 234.691 40.02C234.311 40.02 233.988 40.12 233.721 40.32C233.454 40.52 233.251 40.8033 233.111 41.17C232.971 41.5367 232.901 41.9667 232.901 42.46C232.901 42.96 232.971 43.3933 233.111 43.76C233.258 44.12 233.464 44.3967 233.731 44.59C233.998 44.7833 234.314 44.88 234.681 44.88C235.161 44.88 235.531 44.7467 235.791 44.48C236.058 44.2067 236.224 43.83 236.291 43.35L237.881 43.41C237.788 43.99 237.604 44.4833 237.331 44.89C237.058 45.2967 236.698 45.61 236.251 45.83C235.811 46.05 235.281 46.16 234.661 46.16ZM238.878 46V38.9H243.818V40.18H240.398V41.81H243.698V43.07H240.398V44.72H243.898V46H238.878ZM245.069 46V38.9H246.589V46H245.069ZM247.93 46V38.9H250.77C251.624 38.9 252.29 39.1067 252.77 39.52C253.257 39.9333 253.5 40.5 253.5 41.22C253.5 41.6933 253.39 42.1067 253.17 42.46C252.957 42.8067 252.644 43.0767 252.23 43.27C251.824 43.4567 251.337 43.55 250.77 43.55H249.45V46H247.93ZM249.45 42.27H250.68C251.08 42.27 251.39 42.1833 251.61 42.01C251.83 41.83 251.94 41.5667 251.94 41.22C251.94 40.88 251.83 40.6233 251.61 40.45C251.397 40.27 251.087 40.18 250.68 40.18H249.45V42.27ZM256.139 46V40.18H254.019V38.9H259.799V40.18H257.669V46H256.139Z" fill="#0B0B0B"/>
</g>
</g>
</g>
</g>
</g>
</g>
</g>
</g>
<defs>
<linearGradient id="paint0_linear_0_1" x1="223.5" y1="0" x2="223.5" y2="60" gradientUnits="userSpaceOnUse">
<stop stop-color="#1D232F" stop-opacity="0"/>
<stop offset="1" stop-color="#1D232F"/>
</linearGradient>
</defs>
</svg>
