<svg width="16" height="16" viewBox="0 0 16 16" fill="none" xmlns="http://www.w3.org/2000/svg">
  <path d="M3.71341 14.7204C3.25785 14.7204 2.87174 14.5602 2.55508 14.2396C2.23841 13.919 2.08008 13.5349 2.08008 13.0871V4.51312C2.08008 4.06534 2.23841 3.68118 2.55508 3.36062C2.87174 3.04006 3.25785 2.87979 3.71341 2.87979H4.80041V1.98345C4.80041 1.78834 4.87013 1.62229 5.00958 1.48529C5.14902 1.34829 5.3158 1.27979 5.50991 1.27979C5.70402 1.27979 5.87041 1.34829 6.00908 1.48529C6.14774 1.62229 6.21708 1.78834 6.21708 1.98345V2.87979H9.78374V1.98345C9.78374 1.78834 9.85347 1.62229 9.99291 1.48529C10.1323 1.34829 10.2991 1.27979 10.4932 1.27979C10.6873 1.27979 10.8537 1.34829 10.9924 1.48529C11.1311 1.62229 11.2004 1.78834 11.2004 1.98345V2.87979H12.2874C12.743 2.87979 13.1291 3.04006 13.4457 3.36062C13.7624 3.68118 13.9207 4.06534 13.9207 4.51312V13.0871C13.9207 13.5349 13.7624 13.919 13.4457 14.2396C13.1291 14.5602 12.743 14.7204 12.2874 14.7204H3.71341ZM3.71341 13.0871H12.2874V7.20012H3.71341V13.0871ZM3.71341 6.00012H12.2874V4.51312H3.71341V6.00012Z" fill="white"/>
</svg>
