<svg width="28" height="28" viewBox="0 0 28 28" fill="none" xmlns="http://www.w3.org/2000/svg">
<rect width="28" height="28" fill="#232323"/>
<g id="Section 1">
<path d="M-430 -245C-430 -246.105 -429.105 -247 -428 -247H6732C6733.1 -247 6734 -246.105 6734 -245V2905C6734 2906.1 6733.1 2907 6732 2907H-428C-429.104 2907 -430 2906.1 -430 2905V-245Z" fill="white"/>
<path d="M-428 -247V-246H6732V-247V-248H-428V-247ZM6734 -245H6733V2905H6734H6735V-245H6734ZM6732 2907V2906H-428V2907V2908H6732V2907ZM-430 2905H-429V-245H-430H-431V2905H-430ZM-428 2907V2906C-428.552 2906 -429 2905.55 -429 2905H-430H-431C-431 2906.66 -429.657 2908 -428 2908V2907ZM6734 2905H6733C6733 2905.55 6732.55 2906 6732 2906V2907V2908C6733.66 2908 6735 2906.66 6735 2905H6734ZM6732 -247V-246C6732.55 -246 6733 -245.552 6733 -245H6734H6735C6735 -246.657 6733.66 -248 6732 -248V-247ZM-428 -247V-248C-429.657 -248 -431 -246.657 -431 -245H-430H-429C-429 -245.552 -428.552 -246 -428 -246V-247Z" fill="black" fill-opacity="0.1"/>
<g id="App">
<rect width="1081" height="795" transform="translate(-273 -174)" fill="#13171F" fill-opacity="0.9"/>
<g id="Container">
<mask id="path-3-inside-1_0_1" fill="white">
<path d="M-16.5 7.50001C-16.5 -5.75483 -5.75483 -16.5 7.5 -16.5H527.5C540.755 -16.5 551.5 -5.75483 551.5 7.5V439.5C551.5 452.755 540.755 463.5 527.5 463.5H7.49998C-5.75485 463.5 -16.5 452.755 -16.5 439.5V7.50001Z"/>
</mask>
<path d="M-16.5 7.50001C-16.5 -5.75483 -5.75483 -16.5 7.5 -16.5H527.5C540.755 -16.5 551.5 -5.75483 551.5 7.5V439.5C551.5 452.755 540.755 463.5 527.5 463.5H7.49998C-5.75485 463.5 -16.5 452.755 -16.5 439.5V7.50001Z" fill="#191E28"/>
<path d="M7.5 -16.5V-16H527.5V-16.5V-17H7.5V-16.5ZM551.5 7.5H551V439.5H551.5H552V7.5H551.5ZM527.5 463.5V463H7.49998V463.5V464H527.5V463.5ZM-16.5 439.5H-16V7.50001H-16.5H-17V439.5H-16.5ZM7.49998 463.5V463C-5.47871 463 -16 452.479 -16 439.5H-16.5H-17C-17 453.031 -6.03099 464 7.49998 464V463.5ZM551.5 439.5H551C551 452.479 540.479 463 527.5 463V463.5V464C541.031 464 552 453.031 552 439.5H551.5ZM527.5 -16.5V-16C540.479 -16 551 -5.47869 551 7.5H551.5H552C552 -6.03098 541.031 -17 527.5 -17V-16.5ZM7.5 -16.5V-17C-6.03098 -17 -17 -6.03097 -17 7.50001H-16.5H-16C-16 -5.47869 -5.47869 -16 7.5 -16V-16.5Z" fill="white" fill-opacity="0.05" mask="url(#path-3-inside-1_0_1)"/>
<g id="HistoryScreen">
<g id="Container_2">
<g id="platform/System buttons">
<path d="M0 14C0 6.26801 6.26801 0 14 0C21.732 0 28 6.26801 28 14C28 21.732 21.732 28 14 28C6.26801 28 0 21.732 0 14Z" fill="white" fill-opacity="0.03"/>
<g id="icon-wrapper">
<g id="icon-wrapper-h">
<g id="icon-wrapper_2">
<path id="Union" d="M16.4932 7.2793C16.6871 7.27938 16.8536 7.34844 16.9922 7.48535C17.1308 7.62232 17.2002 7.78838 17.2002 7.9834V8.87988H18.2871C18.7426 8.87991 19.1288 9.03986 19.4453 9.36035C19.7619 9.68084 19.9199 10.065 19.9199 10.5127V19.0869C19.9199 19.5347 19.7619 19.9187 19.4453 20.2393C19.1287 20.5598 18.7427 20.7207 18.2871 20.7207H9.71289C9.25738 20.7207 8.87132 20.5598 8.55469 20.2393C8.23809 19.9187 8.08008 19.5347 8.08008 19.0869V10.5127C8.08015 10.065 8.23809 9.68084 8.55469 9.36035C8.87131 9.03987 9.25742 8.87991 9.71289 8.87988H10.7998V7.9834C10.7998 7.78842 10.8695 7.6223 11.0088 7.48535C11.1482 7.34835 11.3157 7.2793 11.5098 7.2793C11.7038 7.27936 11.8702 7.34841 12.0088 7.48535C12.1473 7.62232 12.2168 7.78836 12.2168 7.9834V8.87988H15.7832V7.9834C15.7832 7.78841 15.8529 7.6223 15.9922 7.48535C16.1316 7.34835 16.2991 7.2793 16.4932 7.2793ZM9.71289 19.0869H18.2871V13.2002H9.71289V19.0869ZM9.71289 12H18.2871V10.5127H9.71289V12Z" fill="white"/>
</g>
</g>
</g>
</g>
</g>
</g>
</g>
</g>
</g>
</svg>
