<svg width="16" height="16" viewBox="0 0 16 16" fill="none" xmlns="http://www.w3.org/2000/svg">
  <path d="M4.85963 5.61621C5.07705 5.61631 5.26886 5.69924 5.43483 5.86523L8.0012 8.44824L10.5833 5.86523C10.7494 5.69901 10.9418 5.61944 11.1594 5.625C11.3769 5.6306 11.5686 5.71588 11.7346 5.88184C11.9009 6.04795 11.9846 6.24034 11.9846 6.45801C11.9846 6.67549 11.8994 6.86886 11.7297 7.03809L8.5774 10.1738C8.4987 10.248 8.409 10.3071 8.3079 10.3506C8.2064 10.394 8.1024 10.416 7.99733 10.416C7.8923 10.416 7.78912 10.394 7.68776 10.3506C7.58649 10.307 7.49849 10.2481 7.42409 10.1738L4.27272 7.02246C4.10288 6.85262 4.02015 6.65899 4.02565 6.44141C4.0312 6.22374 4.11724 6.03135 4.28346 5.86523C4.44955 5.69908 4.64201 5.61621 4.85963 5.61621Z" fill="white" fill-opacity="0.5"/>
</svg>
