<svg width="16" height="16" viewBox="0 0 16 16" fill="none" xmlns="http://www.w3.org/2000/svg">
  <path d="M11.1586 4.0166C11.3761 4.01668 11.5679 4.09966 11.7338 4.26562C11.9001 4.43174 11.9829 4.62413 11.9829 4.8418C11.9828 5.05937 11.9 5.25094 11.7338 5.41699L9.15181 8L11.7338 10.583C11.9 10.7491 11.9829 10.9383 11.9829 11.1504C11.9828 11.3623 11.9 11.5518 11.7338 11.7178C11.5679 11.8837 11.3761 11.9667 11.1586 11.9668C10.941 11.9668 10.7486 11.8839 10.5825 11.7178L8.00044 9.15137L5.41744 11.7344C5.25137 11.9005 5.06209 11.9802 4.85005 11.9746C4.63804 11.9691 4.44873 11.8839 4.28267 11.7178C4.11645 11.5517 4.03365 11.3593 4.03365 11.1416C4.03366 10.924 4.1166 10.7325 4.28267 10.5664L6.8481 8L4.26607 5.41699C4.09997 5.25095 4.01934 5.05935 4.02486 4.8418C4.03041 4.62413 4.11645 4.43174 4.28267 4.26562C4.44862 4.09965 4.64047 4.01672 4.85787 4.0166C5.07546 4.0166 5.26796 4.09952 5.43404 4.26562L8.00044 6.84863L10.5825 4.26562C10.7486 4.09946 10.941 4.0166 11.1586 4.0166Z" fill="currentColor"/>
</svg>
