<svg preserveAspectRatio="none" width="100%" height="100%" overflow="visible" style="display: block;" viewBox="0 0 24 24" fill="none" xmlns="http://www.w3.org/2000/svg">
<g id="delete_history">
<mask id="mask0_0_364" style="mask-type:alpha" maskUnits="userSpaceOnUse" x="0" y="0" width="24" height="24">
<rect id="Bounding box" width="24" height="24" fill="var(--fill-0, #D9D9D9)"/>
</mask>
<g mask="url(#mask0_0_364)">
<path id="delete_history_2" d="M16.412 21.2032L14.8148 19.612L16.9148 17.512L14.8148 15.412L16.412 13.8148L18.512 15.9147L20.612 13.8148L22.2033 15.412L20.1283 17.512L22.2033 19.612L20.612 21.2032L18.512 19.1283L16.412 21.2032ZM11.988 21.2032C9.6335 21.2032 7.58183 20.4218 5.833 18.859C4.08417 17.2962 3.08675 15.3432 2.84075 13H5.15975C5.39708 14.7133 6.16217 16.1297 7.455 17.2492C8.74783 18.3686 10.2588 18.9283 11.988 18.9283C12.1407 18.9283 12.2829 18.9251 12.4148 18.9187C12.5466 18.9124 12.6819 18.8966 12.8208 18.8712V21.1652C12.6819 21.1779 12.5466 21.1874 12.4148 21.1938C12.2829 21.2001 12.1407 21.2032 11.988 21.2032ZM2.8505 10V3.8505H4.94025V6.11075C5.81008 5.05208 6.8595 4.23508 8.0885 3.65975C9.3175 3.08442 10.6193 2.79675 11.994 2.79675C14.518 2.79675 16.6699 3.67175 18.4498 5.42175C20.2296 7.17175 21.1414 9.30275 21.1853 11.8148H18.9102C18.8664 9.92842 18.1763 8.333 16.84 7.0285C15.5035 5.724 13.8882 5.07175 11.994 5.07175C10.8918 5.07175 9.85667 5.3215 8.8885 5.821C7.9205 6.32033 7.10075 7.01275 6.42925 7.89825H9.012V10H2.8505ZM13.1528 14.6425L10.9583 12.4477V7H13.0477V11.6L14.2505 12.8027L13.1528 14.6425Z" fill="var(--fill-0, white)"/>
</g>
</g>
</svg>
