<svg width="16" height="16" viewBox="0 0 16 16" fill="none" xmlns="http://www.w3.org/2000/svg">
  <path d="M8.55333 1.45333C8.20333 1.27333 7.79667 1.27333 7.44667 1.45333L1.73333 4.05333C1.32667 4.26 1.32667 4.74 1.73333 4.94667L7.44667 7.54667C7.79667 7.72667 8.20333 7.72667 8.55333 7.54667L14.2667 4.94667C14.6733 4.74 14.6733 4.26 14.2667 4.05333L8.55333 1.45333Z" stroke="currentColor" stroke-width="1.2" stroke-linecap="round" stroke-linejoin="round"/>
  <path d="M14.6667 8.43333L8.55333 11.0333C8.20333 11.2133 7.79667 11.2133 7.44667 11.0333L1.33333 8.43333" stroke="currentColor" stroke-width="1.2" stroke-linecap="round" stroke-linejoin="round"/>
  <path d="M14.6667 11.7667L8.55333 14.3667C8.20333 14.5467 7.79667 14.5467 7.44667 14.3667L1.33333 11.7667" stroke="currentColor" stroke-width="1.2" stroke-linecap="round" stroke-linejoin="round"/>
</svg>
