<svg width="16" height="16" viewBox="0 0 16 16" fill="none" xmlns="http://www.w3.org/2000/svg">
  <path d="M4.12207 9.58528C4.36747 9.58528 4.5764 9.67138 4.74805 9.84309C4.91982 10.0148 5.00586 10.2236 5.00586 10.4691C5.00581 10.7143 4.91967 10.9225 4.74805 11.0941C4.57638 11.2658 4.36751 11.3519 4.12207 11.3519H3.3252C3.87308 12.1224 4.55543 12.7225 5.37109 13.1507C6.18662 13.5788 7.06296 13.7923 8 13.7923C9.13031 13.7923 10.1622 13.4944 11.0957 12.8978C12.0292 12.3009 12.742 11.5027 13.2344 10.5042C13.3594 10.2528 13.5264 10.0559 13.7344 9.9134C13.9426 9.77096 14.1781 9.73447 14.4395 9.80403C14.6957 9.8736 14.8722 10.023 14.9678 10.2532C15.0634 10.4836 15.0549 10.7268 14.9424 10.9818C14.3424 12.3586 13.4175 13.4656 12.1689 14.3031C10.9204 15.1405 9.53088 15.5599 8 15.5599C6.844 15.5599 5.7534 15.3079 4.72852 14.805C3.70381 14.3021 2.83209 13.5908 2.11328 12.6712V13.3616C2.11328 13.607 2.02714 13.8158 1.85547 13.9876C1.68372 14.1593 1.47486 14.2454 1.22949 14.2454C0.984234 14.2454 0.775253 14.1594 0.603516 13.9876C0.431803 13.8159 0.34668 13.6069 0.34668 13.3616V10.4691C0.34668 10.2237 0.431874 10.0147 0.603516 9.84309C0.775253 9.67135 0.984234 9.58532 1.22949 9.58528H4.12207ZM6.52734 5.21321C6.68159 5.12783 6.83275 5.13339 6.98145 5.22981L10.708 7.63215C10.8392 7.7177 10.9053 7.84049 10.9053 8.00032C10.9052 8.16005 10.8393 8.28298 10.708 8.36848L6.98145 10.7698C6.83279 10.8663 6.68155 10.8727 6.52734 10.7874C6.37303 10.7019 6.29592 10.5701 6.2959 10.3929V5.60676C6.29602 5.42974 6.37313 5.2987 6.52734 5.21321ZM13.8936 3.47785C14.1254 3.5001 14.312 3.61733 14.4531 3.82942C14.7215 4.236 14.9366 4.63706 15.0986 5.03254C15.2606 5.42806 15.3922 5.86431 15.4922 6.34114C15.5444 6.5928 15.4972 6.81059 15.3516 6.99348C15.2059 7.17604 15.0039 7.26692 14.7461 7.26692C14.4723 7.26687 14.2423 7.18601 14.0557 7.02375C13.8689 6.86153 13.7405 6.64346 13.6709 6.36946C13.6009 6.13182 13.5263 5.91536 13.4473 5.72004C13.3683 5.52463 13.2692 5.32078 13.1494 5.10871C13.0146 4.86816 12.9545 4.62436 12.9688 4.37825C12.9831 4.13231 13.0862 3.91229 13.2793 3.71907C13.4566 3.53554 13.6617 3.45563 13.8936 3.47785ZM2.10059 3.47004C2.33485 3.4415 2.54597 3.52196 2.73438 3.71028C2.9276 3.9035 3.02962 4.12335 3.03906 4.36946C3.04833 4.61547 2.98531 4.86142 2.85059 5.10676C2.72465 5.31391 2.62518 5.51814 2.55176 5.71907C2.47833 5.92003 2.40603 6.13965 2.33594 6.37727C2.26014 6.63983 2.12925 6.85273 1.94336 7.01496C1.75742 7.17712 1.5297 7.25813 1.26074 7.25813C1.00279 7.25811 0.79935 7.16658 0.651367 6.98371C0.503383 6.80087 0.455609 6.58638 0.507812 6.34114C0.606331 5.86936 0.738195 5.43607 0.90332 5.04133C1.06854 4.64633 1.2827 4.24498 1.54492 3.83821C1.68124 3.62141 1.86643 3.49849 2.10059 3.47004ZM6.3457 0.479808C6.5959 0.427703 6.81381 0.475591 6.99902 0.624339C7.18432 0.773089 7.27633 0.976758 7.27637 1.23469C7.27637 1.50858 7.19554 1.73766 7.0332 1.92121C6.87094 2.10461 6.65612 2.23756 6.38867 2.31965C6.15591 2.38487 5.94153 2.45971 5.74609 2.54426C5.55065 2.62882 5.34625 2.73113 5.13281 2.8509C4.89215 2.98568 4.64668 3.04058 4.39746 3.01692C4.14832 2.99317 3.92748 2.88481 3.73438 2.69172C3.55084 2.50818 3.47018 2.30231 3.49316 2.07356C3.51605 1.84478 3.63359 1.65644 3.8457 1.5091C4.24752 1.25171 4.64659 1.03905 5.04297 0.871409C5.4393 0.703854 5.8737 0.573586 6.3457 0.479808ZM8.97852 0.624339C9.16128 0.475606 9.37568 0.427703 9.62109 0.479808C10.0978 0.579804 10.5341 0.709493 10.9297 0.86848C11.3253 1.02736 11.7271 1.23801 12.1338 1.50032C12.3518 1.6427 12.4753 1.83245 12.5039 2.06965C12.5323 2.30699 12.4549 2.51788 12.2715 2.70149C12.0719 2.90093 11.8454 3.00521 11.5938 3.01399C11.3423 3.02256 11.0934 2.95577 10.8467 2.81477C10.6396 2.69506 10.4369 2.59558 10.2393 2.51594C10.0415 2.43622 9.8234 2.36484 9.58594 2.3011C9.32319 2.22533 9.11057 2.09528 8.94824 1.91243C8.78591 1.72954 8.7041 1.50369 8.7041 1.23469C8.70414 0.976758 8.79566 0.773089 8.97852 0.624339Z" fill="currentColor"/>
</svg>
