<svg width="532" height="40" viewBox="0 0 532 40" fill="none" xmlns="http://www.w3.org/2000/svg">
<rect width="532" height="40" fill="#232323"/>
<g id="Section 1">
<path d="M-431 -593.5C-431 -594.605 -430.105 -595.5 -429 -595.5H6731C6732.1 -595.5 6733 -594.605 6733 -593.5V2556.5C6733 2557.6 6732.1 2558.5 6731 2558.5H-429C-430.104 2558.5 -431 2557.6 -431 2556.5V-593.5Z" fill="white"/>
<path d="M-429 -595.5V-594.5H6731V-595.5V-596.5H-429V-595.5ZM6733 -593.5H6732V2556.5H6733H6734V-593.5H6733ZM6731 2558.5V2557.5H-429V2558.5V2559.5H6731V2558.5ZM-431 2556.5H-430V-593.5H-431H-432V2556.5H-431ZM-429 2558.5V2557.5C-429.552 2557.5 -430 2557.05 -430 2556.5H-431H-432C-432 2558.16 -430.657 2559.5 -429 2559.5V2558.5ZM6733 2556.5H6732C6732 2557.05 6731.55 2557.5 6731 2557.5V2558.5V2559.5C6732.66 2559.5 6734 2558.16 6734 2556.5H6733ZM6731 -595.5V-594.5C6731.55 -594.5 6732 -594.052 6732 -593.5H6733H6734C6734 -595.157 6732.66 -596.5 6731 -596.5V-595.5ZM-429 -595.5V-596.5C-430.657 -596.5 -432 -595.157 -432 -593.5H-431H-430C-430 -594.052 -429.552 -594.5 -429 -594.5V-595.5Z" fill="black" fill-opacity="0.1"/>
<g id="App">
<rect width="1081" height="795" transform="translate(-274 -522.5)" fill="#13171F" fill-opacity="0.9"/>
<g id="Container">
<mask id="path-3-inside-1_0_1" fill="white">
<path d="M-17.5 -341C-17.5 -354.255 -6.75483 -365 6.5 -365H526.5C539.755 -365 550.5 -354.255 550.5 -341V91C550.5 104.255 539.755 115 526.5 115H6.49998C-6.75485 115 -17.5 104.255 -17.5 91V-341Z"/>
</mask>
<path d="M-17.5 -341C-17.5 -354.255 -6.75483 -365 6.5 -365H526.5C539.755 -365 550.5 -354.255 550.5 -341V91C550.5 104.255 539.755 115 526.5 115H6.49998C-6.75485 115 -17.5 104.255 -17.5 91V-341Z" fill="#191E28"/>
<path d="M6.5 -365V-364.5H526.5V-365V-365.5H6.5V-365ZM550.5 -341H550V91H550.5H551V-341H550.5ZM526.5 115V114.5H6.49998V115V115.5H526.5V115ZM-17.5 91H-17V-341H-17.5H-18V91H-17.5ZM6.49998 115V114.5C-6.47871 114.5 -17 103.979 -17 91H-17.5H-18C-18 104.531 -7.03099 115.5 6.49998 115.5V115ZM550.5 91H550C550 103.979 539.479 114.5 526.5 114.5V115V115.5C540.031 115.5 551 104.531 551 91H550.5ZM526.5 -365V-364.5C539.479 -364.5 550 -353.979 550 -341H550.5H551C551 -354.531 540.031 -365.5 526.5 -365.5V-365ZM6.5 -365V-365.5C-7.03098 -365.5 -18 -354.531 -18 -341H-17.5H-17C-17 -353.979 -6.47869 -364.5 6.5 -364.5V-365Z" fill="white" fill-opacity="0.05" mask="url(#path-3-inside-1_0_1)"/>
<g id="HistoryScreen">
<g id="Container_2">
<g id="footer">
<path d="M0 0L532 0V28C532 34.6275 526.627 40 520 40L12 40C5.37257 40 0 34.6275 0 28L0 0Z" fill="url(#paint0_linear_0_1)"/>
</g>
</g>
</g>
</g>
</g>
</g>
<defs>
<linearGradient id="paint0_linear_0_1" x1="266" y1="0" x2="266" y2="40" gradientUnits="userSpaceOnUse">
<stop stop-color="#191E28" stop-opacity="0"/>
<stop offset="0.701923" stop-color="#191E28"/>
</linearGradient>
</defs>
</svg>
